<?xml version="1.0" encoding="utf-8"?>
<!-- Generator: Adobe Illustrator 21.0.0, SVG Export Plug-In . SVG Version: 6.00 Build 0)  -->
<!DOCTYPE svg PUBLIC "-//W3C//DTD SVG 1.1//EN" "http://www.w3.org/Graphics/SVG/1.1/DTD/svg11.dtd">
<svg version="1.1" id="Layer_1" xmlns="http://www.w3.org/2000/svg" xmlns:xlink="http://www.w3.org/1999/xlink" x="0px" y="0px"
	 viewBox="0 0 512 512" style="enable-background:new 0 0 512 512;" xml:space="preserve">
<style type="text/css">
	.st0{fill:#A9A4E0;}
	.st1{fill:#6F64BF;}
	.st2{fill:#51331E;}
	.st3{fill:#3D2414;}
	.st4{fill:#FCD088;}
	.st5{fill:#DDAB62;}
	.st6{fill:#FFEDB5;}
	.st7{fill:#E8CF89;}
	.st8{fill:#FFAD9E;}
	.st9{fill:#FF6262;}
	.st10{fill:#D9EDEC;}
	.st11{fill:#B7CECC;}
	.st12{fill:#38C6D9;}
	.st13{fill:#606060;}
	.st14{fill:#6D462B;}
	.st15{fill:#4C2E19;}
</style>
<circle class="st0" cx="256" cy="256" r="256"/>
<path class="st1" d="M507.8,302.5L321.3,116l-56.7,252.8l112.6,112.6C444.4,445.3,493.6,380,507.8,302.5z"/>
<path class="st2" d="M166.9,211.2c0,0-0.6,96,48.3,161.5h81.6c0,0,41.9-49.4,37.9-119.5C330.7,183,166.9,211.2,166.9,211.2z"/>
<path class="st3" d="M334.7,253.1c-1.9-33.2-39.6-44.3-78.7-46.9v166.4h40.8C296.8,372.7,338.7,323.2,334.7,253.1z"/>
<rect x="213.3" y="293.7" class="st4" width="85.3" height="104.3"/>
<rect x="256" y="293.7" class="st5" width="42.7" height="104.3"/>
<path class="st6" d="M347.5,205.4c0.5-4.2,0.7-8.4,0.7-12.5c0-54-41.3-97.7-92.2-97.7s-92.2,43.8-92.2,97.7c0,4.1,0.2,8.3,0.7,12.5
	c-8.9,2.3-13.2,16.1-9.5,30.8c3.7,14.8,14,24.9,23,22.7c0.8-0.2,1.6-0.5,2.3-0.9c16.7,33.5,44.4,60.6,75.7,60.6s59-27.1,75.7-60.6
	c0.7,0.4,1.5,0.7,2.3,0.9c9,2.3,19.3-7.9,23-22.7C360.7,221.5,356.5,207.8,347.5,205.4z"/>
<path class="st7" d="M347.5,205.4c0.5-4.2,0.7-8.4,0.7-12.5c0-54-41.3-97.7-92.2-97.7v223.4c31.3,0,59-27.1,75.7-60.6
	c0.7,0.4,1.5,0.7,2.3,0.9c9,2.3,19.3-7.9,23-22.7C360.7,221.5,356.5,207.8,347.5,205.4z"/>
<path class="st8" d="M216.1,376.1c0,0,34.8,24.4,84.5,0l-44.8,115.8L216.1,376.1z"/>
<path class="st9" d="M256,386.9v104.2l44.5-115C283.7,384.4,268.6,387,256,386.9z"/>
<path class="st10" d="M357.8,362l-45.2-9l-8-11.7c-1.5-2.2-4.3-3-6.8-2L256,479.5l-41.5-140.2c-2.4-1.1-5.2-0.3-6.8,1.9l-8.2,11.7
	l-45.2,9c-23,4.6-39.6,24.8-39.6,48.3v59.2c40.4,26.9,89,42.6,141.3,42.6s100.9-15.7,141.4-42.6v-59.2
	C397.4,386.8,380.8,366.6,357.8,362z"/>
<path class="st11" d="M397.4,410.3c0-23.5-16.6-43.7-39.6-48.3l-45.2-9l-8-11.7c-1.5-2.2-4.3-3-6.8-2L256,479.5V512
	c52.3,0,100.9-15.7,141.4-42.6V410.3z"/>
<g>
	<path class="st12" d="M192.2,415c-2.9,0-5.2-2.3-5.2-5.2v-58.6c0-2.9,2.3-5.2,5.2-5.2s5.2,2.3,5.2,5.2v58.6
		C197.4,412.7,195.1,415,192.2,415z"/>
	<path class="st12" d="M332,400.4c-2.9,0-5.2-2.3-5.2-5.2v-43c0-2.9,2.3-5.2,5.2-5.2s5.2,2.3,5.2,5.2v43
		C337.2,398.1,334.9,400.4,332,400.4z"/>
</g>
<circle class="st13" cx="192.2" cy="423.9" r="23.5"/>
<path class="st12" d="M347.8,473.7h-1.3c-2.9,0-5.2-2.3-5.2-5.2s2.3-5.2,5.2-5.2h1.3c1.9,0,3.4-1.5,3.4-3.4v-38.1
	c0-10.6-8.6-19.2-19.2-19.2s-19.2,8.6-19.2,19.2v38.1c0,1.9,1.5,3.4,3.4,3.4c2.9,0,5.2,2.3,5.2,5.2s-2.3,5.2-5.2,5.2
	c-7.6,0-13.8-6.2-13.8-13.8v-38.1c0-16.3,13.2-29.5,29.5-29.5s29.5,13.2,29.5,29.5v38.1C361.6,467.5,355.4,473.7,347.8,473.7z"/>
<path class="st14" d="M224.4,152c0,0,118.9,32.2,97.7,167.2c0,0,83.3-70.1,16.7-180.4c-52.2-86.4-157.4-54-164.3-9.2
	c0,0-24.5,16.1-9.9,75.9C164.5,205.4,201.4,194.5,224.4,152z"/>
<path class="st15" d="M338.7,138.8c-22-36.3-53.3-51.7-82.7-53.9v81.4c33.6,20,80,64.3,66.1,153
	C322.1,319.2,405.4,249.1,338.7,138.8z"/>
</svg>
